<?xml version="1.0" encoding="utf-8"?>
<svg xmlns="http://www.w3.org/2000/svg" xml:space="preserve" viewBox="0 0 72 72">
  <circle cx="35.5" cy="36.5" r="27.5" fill="#4A4A4D" stroke="#FFF"/>
  <g fill="#FFF" transform="matrix(.075 0 0 .075 16 17)">
    <circle cx="259.8" cy="259.9" r="80"/>
    <path d="M511.7 237.7C450.2 163.4 357 92 259.8 92 162.5 91.9 69.4 163.4 8 237.7A34.8 34.8 0 0 0 8 282a520.8 520.8 0  0 0 91 86.2c109 79.3 212.4 79.5 321.6 0a520.8 520.8 0 0 0 91-86.2 34.8 34.8 0 0 0 0-44.3zM259.8 148a112.1 112.1 0 0  1 0 224 112.1 112.1 0 0 1 0-224z"/>
  </g>
</svg>